HIERARCHY
ROOT hip
{
  OFFSET 0 0 0
  CHANNELS 6 Xposition Yposition Zposition Zrotation Yrotation Xrotation
  JOINT abdomen
  {
    OFFSET 0 20.6881 -0.73152
    CHANNELS 3 Zrotation Xrotation Yrotation
    JOINT chest
    {
      OFFSET 0 11.7043 -0.48768
      CHANNELS 3 Zrotation Xrotation Yrotation
      JOINT neck
      {
        OFFSET 0 22.1894 -2.19456
        CHANNELS 3 Zrotation Xrotation Yrotation
        JOINT head
        {
          OFFSET -0.24384 7.07133 1.2192
          CHANNELS 3 Zrotation Xrotation Yrotation
          JOINT leftEye
          {
            OFFSET 4.14528 8.04674 8.04672
            CHANNELS 3 Zrotation Xrotation Yrotation
            End Site
            {
              OFFSET 1 0 0
            }
          }
          JOINT rightEye
          {
            OFFSET -3.6576 8.04674 8.04672
            CHANNELS 3 Zrotation Xrotation Yrotation
            End Site
            {
              OFFSET 1 0 0
            }
          }
        }
      }
      JOINT rCollar
      {
        OFFSET -2.68224 19.2634 -4.8768
        CHANNELS 3 Zrotation Xrotation Yrotation
        JOINT rShldr
        {
          OFFSET -8.77824 -1.95073 1.46304
          CHANNELS 3 Zrotation Xrotation Yrotation
          JOINT rForeArm
          {
            OFFSET -28.1742 -1.7115 0.48768
            CHANNELS 3 Zrotation Xrotation Yrotation
            JOINT rHand
            {
              OFFSET -22.5879 0.773209 7.07136
              CHANNELS 3 Zrotation Xrotation Yrotation
              JOINT rThumb1
              {
                OFFSET -1.2192 -0.487915 3.41376
                CHANNELS 3 Zrotation Xrotation Yrotation
                JOINT rThumb2
                {
                  OFFSET -3.37035 -0.52449 3.41376
                  CHANNELS 3 Zrotation Xrotation Yrotation
                  End Site
                  {
                    OFFSET -1.78271 -1.18214 1.43049
                  }
                }
              }
              JOINT rIndex1
              {
                OFFSET -7.75947 0.938293 5.60832
                CHANNELS 3 Zrotation Xrotation Yrotation
                JOINT rIndex2
                {
                  OFFSET -2.54057 -0.884171 1.56538
                  CHANNELS 3 Zrotation Xrotation Yrotation
                  End Site
                  {
                    OFFSET -1.62519 -0.234802 1.16502
                  }
                }
              }
              JOINT rMid1
              {
                OFFSET -8.24714 1.18213 3.41376
                CHANNELS 3 Zrotation Xrotation Yrotation
                JOINT rMid2
                {
                  OFFSET -3.10165 -0.590103 1.0647
                  CHANNELS 3 Zrotation Xrotation Yrotation
                  End Site
                  {
                    OFFSET -2.48547 -0.328903 0.83742
                  }
                }
              }
              JOINT rRing1
              {
                OFFSET -8.82822 0.546677 1.51678
                CHANNELS 3 Zrotation Xrotation Yrotation
                JOINT rRing2
                {
                  OFFSET -2.60934 -0.819778 -0.0198488
                  CHANNELS 3 Zrotation Xrotation Yrotation
                  End Site
                  {
                    OFFSET -2.33842 -0.294052 0.168128
                  }
                }
              }
              JOINT rPinky1
              {
                OFFSET -8.27202 -0.0477905 -0.4584
                CHANNELS 3 Zrotation Xrotation Yrotation
                JOINT rPinky2
                {
                  OFFSET -1.82734 -0.647385 -0.700984
                  CHANNELS 3 Zrotation Xrotation Yrotation
                  End Site
                  {
                    OFFSET -1.69225 -0.51767 -0.607171
                  }
                }
              }
            }
          }
        }
      }
      JOINT lCollar
      {
        OFFSET 2.68224 19.2634 -4.8768
        CHANNELS 3 Zrotation Xrotation Yrotation
        JOINT lShldr
        {
          OFFSET 8.77824 -1.95073 1.46304
          CHANNELS 3 Zrotation Xrotation Yrotation
          JOINT lForeArm
          {
            OFFSET 28.1742 -1.7115 0.48768
            CHANNELS 3 Zrotation Xrotation Yrotation
            JOINT lHand
            {
              OFFSET 22.5879 0.773209 7.07136
              CHANNELS 3 Zrotation Xrotation Yrotation
              JOINT lThumb1
              {
                OFFSET 1.2192 -0.487915 3.41376
                CHANNELS 3 Zrotation Xrotation Yrotation
                JOINT lThumb2
                {
                  OFFSET 3.37035 -0.52449 3.41376
                  CHANNELS 3 Zrotation Xrotation Yrotation
                  End Site
                  {
                    OFFSET 1.78271 -1.18214 1.43049
                  }
                }
              }
              JOINT lIndex1
              {
                OFFSET 7.75947 0.938293 5.60832
                CHANNELS 3 Zrotation Xrotation Yrotation
                JOINT lIndex2
                {
                  OFFSET 2.54057 -0.884171 1.56538
                  CHANNELS 3 Zrotation Xrotation Yrotation
                  End Site
                  {
                    OFFSET 1.62519 -0.234802 1.16502
                  }
                }
              }
              JOINT lMid1
              {
                OFFSET 8.24714 1.18213 3.41376
                CHANNELS 3 Zrotation Xrotation Yrotation
                JOINT lMid2
                {
                  OFFSET 3.10165 -0.590103 1.0647
                  CHANNELS 3 Zrotation Xrotation Yrotation
                  End Site
                  {
                    OFFSET 2.48547 -0.328903 0.83742
                  }
                }
              }
              JOINT lRing1
              {
                OFFSET 8.82822 0.546677 1.51678
                CHANNELS 3 Zrotation Xrotation Yrotation
                JOINT lRing2
                {
                  OFFSET 2.60934 -0.819778 -0.0198488
                  CHANNELS 3 Zrotation Xrotation Yrotation
                  End Site
                  {
                    OFFSET 2.33842 -0.294052 0.168128
                  }
                }
              }
              JOINT lPinky1
              {
                OFFSET 8.27202 -0.0477905 -0.4584
                CHANNELS 3 Zrotation Xrotation Yrotation
                JOINT lPinky2
                {
                  OFFSET 1.82734 -0.647385 -0.700984
                  CHANNELS 3 Zrotation Xrotation Yrotation
                  End Site
                  {
                    OFFSET 1.69225 -0.51767 -0.607171
                  }
                }
              }
            }
          }
        }
      }
    }
  }
  JOINT rButtock
  {
    OFFSET -8.77824 4.35084 1.2192
    CHANNELS 3 Zrotation Xrotation Yrotation
    JOINT rThigh
    {
      OFFSET 0 -1.70687 -2.19456
      CHANNELS 3 Zrotation Xrotation Yrotation
      JOINT rShin
      {
        OFFSET 0 -36.8199 0.73152
        CHANNELS 3 Zrotation Xrotation Yrotation
        JOINT rFoot
        {
          OFFSET 0.73152 -45.1104 -5.12064
          CHANNELS 3 Zrotation Xrotation Yrotation
          End Site
          {
            OFFSET -1.1221 -3.69964 12.103
          }
        }
      }
    }
  }
  JOINT lButtock
  {
    OFFSET 8.77824 4.35084 1.2192
    CHANNELS 3 Zrotation Xrotation Yrotation
    JOINT lThigh
    {
      OFFSET 0 -1.70687 -2.19456
      CHANNELS 3 Zrotation Xrotation Yrotation
      JOINT lShin
      {
        OFFSET 0 -36.8199 0.73152
        CHANNELS 3 Zrotation Xrotation Yrotation
        JOINT lFoot
        {
          OFFSET -0.73152 -45.1104 -5.12064
          CHANNELS 3 Zrotation Xrotation Yrotation
          End Site
          {
            OFFSET 1.1221 -3.69964 12.103
          }
        }
      }
    }
  }
}
MOTION
Frames:	4
Frame Time:	0.00833333
57.5542 81.7087 9.6778 176.124 0.3842 -157.625 -7.93625 -20.4997 1.68699 3.63792 13.641 0.140728 -3.24153 14.4241 -0.626428 7.82905 -3.98796 -4.07665 -0.0 0.0 0.0 -0.0 0.0 0.0 7.65985e-14 -2.7512e-13 -6.07474e-14 80.1465 21.7241 5.28131 -17.342 -9.99635 32.5599 -0.0484193 -6.26597 -0.88419 6.73855e-11 -1.92303e-09 5.8798e-10 1.19359e-10 -3.32608e-09 1.01819e-09 6.73978e-11 -1.92304e-09 5.87971e-10 7.73091 5.47488 0.417314 6.73943e-11 -1.92304e-09 5.87983e-10 2.90554 0.965183 0.102902 6.74045e-11 -1.92304e-09 5.87982e-10 10.2786 0.731801 0.0259123 6.73818e-11 -1.92303e-09 5.8799e-10 2.22167 -0.733487 -0.20892 7.62967e-14 -2.75118e-13 -6.09492e-14 -76.8084 15.8451 0.424815 9.86169 -4.05777 -17.5422 0.0948616 8.75166 -1.23972 1.11469e-09 -5.52184e-10 -2.8544e-09 1.90485e-09 -9.54567e-10 -4.94085e-09 1.11469e-09 -5.52188e-10 -2.85439e-09 -7.73091 5.47488 -0.417314 1.11469e-09 -5.52186e-10 -2.8544e-09 -2.90554 0.965183 -0.102902 1.11469e-09 -5.52185e-10 -2.8544e-09 -10.2786 0.731801 -0.0259123 1.1147e-09 -5.52185e-10 -2.85441e-09 -2.22167 -0.733487 0.20892 -2.03217e-16 0.0 -3.88251e-19 3.34313 -23.5256 9.02418 0.0938608 18.05 1.03772 -3.50058 -18.8605 -8.16356 2.03217e-16 0.0 3.88251e-19 -16.809 -75.2189 -20.306 0.987957 59.264 -1.61505 0.639942 -1.64238 0.776732
57.5084 81.6904 9.25081 176.23 0.455 -157.296 -8.03816 -20.7484 1.72051 3.62163 13.6423 0.157059 -3.27975 14.2795 -0.596045 7.82673 -3.7439 -4.04567 -0.0 0.0 0.0 -0.0 0.0 0.0 5.46773e-14 -4.60784e-13 -9.14969e-14 80.2381 21.9595 5.08495 -17.3848 -10.0402 32.6542 -0.0496099 -6.34223 -0.89504 6.88646e-10 -3.14489e-09 1.05785e-09 1.1927e-09 -5.43655e-09 1.8334e-09 6.88663e-10 -3.1449e-09 1.05785e-09 7.73091 5.47488 0.417314 6.8866e-10 -3.1449e-09 1.05786e-09 2.90554 0.965183 0.102902 6.88671e-10 -3.1449e-09 1.05786e-09 10.2786 0.731801 0.0259123 6.88642e-10 -3.14489e-09 1.05786e-09 2.22167 -0.733487 -0.20892 5.44497e-14 -4.60783e-13 -9.16331e-14 -76.8019 15.615 0.559263 9.90048 -4.08114 -17.6149 0.0959183 8.79959 -1.24662 2.43237e-09 -5.50986e-10 -3.71031e-09 4.17505e-09 -9.50673e-10 -6.42898e-09 2.43237e-09 -5.50991e-10 -3.7103e-09 -7.73091 5.47488 -0.417314 2.43237e-09 -5.50989e-10 -3.71031e-09 -2.90554 0.965183 -0.102902 2.43238e-09 -5.50987e-10 -3.7103e-09 -10.2786 0.731801 -0.0259123 2.43238e-09 -5.50988e-10 -3.71032e-09 -2.22167 -0.733487 0.20892 -2.03217e-16 0.0 -3.88251e-19 3.27918 -23.4551 8.88271 0.0924264 18.0374 1.02536 -3.43182 -18.8295 -7.98039 2.03217e-16 0.0 3.88251e-19 -16.3443 -74.7413 -19.9162 0.961888 58.7988 -1.58287 0.604354 -1.33325 0.542653
57.403 81.687 8.79628 176.108 0.5951 -157.091 -8.14639 -20.9767 1.74751 3.60634 13.638 0.198449 -3.28154 14.1914 -0.582683 7.80374 -3.60106 -4.03472 -0.0 0.0 0.0 -0.0 0.0 0.0 2.73146e-14 -5.05709e-13 -9.69075e-14 80.352 22.0906 4.89476 -17.4025 -10.0584 32.6931 -0.0497411 -6.35192 -0.896415 1.07623e-09 -3.38582e-09 1.19758e-09 1.86151e-09 -5.85138e-09 2.07657e-09 1.07625e-09 -3.38584e-09 1.19758e-09 7.73091 5.47488 0.417314 1.07624e-09 -3.38583e-09 1.19759e-09 2.90554 0.965183 0.102902 1.07626e-09 -3.38583e-09 1.19759e-09 10.2786 0.731801 0.0259123 1.07622e-09 -3.38582e-09 1.19759e-09 2.22167 -0.733487 -0.20892 2.71542e-14 -5.05709e-13 -9.70069e-14 -76.7855 15.4007 0.668274 9.92533 -4.09611 -17.6615 0.0963476 8.81893 -1.2494 2.99662e-09 -3.81107e-10 -3.43395e-09 5.15203e-09 -6.55808e-10 -5.95502e-09 2.99662e-09 -3.8111e-10 -3.43393e-09 -7.73091 5.47488 -0.417314 2.99663e-09 -3.81109e-10 -3.43394e-09 -2.90554 0.965183 -0.102902 2.99663e-09 -3.81107e-10 -3.43394e-09 -10.2786 0.731801 -0.0259123 2.99663e-09 -3.81108e-10 -3.43395e-09 -2.22167 -0.733487 0.20892 -2.03217e-16 0.0 -3.88251e-19 3.23735 -23.36 8.80769 0.091279 18.0118 1.01735 -3.4015 -18.7885 -7.91361 2.03217e-16 0.0 3.88251e-19 -15.9012 -74.3054 -19.4799 0.940879 58.4211 -1.56004 0.592819 -1.39634 0.457706
57.3239 81.6692 8.33488 176.065 0.7521 -156.941 -8.27333 -21.1879 1.76155 3.59441 13.6399 0.290771 -3.23515 14.1659 -0.593072 7.74562 -3.56085 -4.05857 -0.0 0.0 0.0 -0.0 0.0 0.0 -1.67132e-14 -3.15099e-13 -6.0429e-14 80.4888 22.0807 4.7281 -17.3833 -10.0387 32.6509 -0.0483391 -6.2649 -0.88403 1.19581e-09 -2.0479e-09 8.0615e-10 2.06583e-09 -3.53679e-09 1.39974e-09 1.19583e-09 -2.04791e-09 8.06146e-10 7.73091 5.47488 0.417314 1.19583e-09 -2.04791e-09 8.06153e-10 2.90554 0.965183 0.102902 1.19584e-09 -2.04791e-09 8.06154e-10 10.2786 0.731801 0.0259123 1.19581e-09 -2.0479e-09 8.06157e-10 2.22167 -0.733487 -0.20892 -1.68049e-14 -3.15099e-13 -6.05323e-14 -76.7578 15.1866 0.740198 9.92719 -4.09721 -17.6651 0.0960336 8.80446 -1.24732 2.42984e-09 1.08984e-10 -1.15255e-09 4.19e-09 1.91746e-10 -2.00799e-09 2.42983e-09 1.08983e-10 -1.15254e-09 -7.73091 5.47488 -0.417314 2.42984e-09 1.08983e-10 -1.15255e-09 -2.90554 0.965183 -0.102902 2.42984e-09 1.08985e-10 -1.15255e-09 -10.2786 0.731801 -0.0259123 2.42984e-09 1.08986e-10 -1.15255e-09 -2.22167 -0.733487 0.20892 -2.03217e-16 0.0 -3.88251e-19 3.22786 -23.2271 8.8398 0.0905665 17.9706 1.01564 -3.43899 -18.764 -8.04123 2.03217e-16 0.0 3.88251e-19 -15.3579 -73.8853 -18.8196 0.923456 58.1215 -1.5474 0.619508 -2.07052 0.616354
